<svg width="83" height="20" viewBox="0 0 83 20" fill="none" xmlns="http://www.w3.org/2000/svg">
<g opacity="0.3" clip-path="url(#clip0_205_13)">
<path fill-rule="evenodd" clip-rule="evenodd" d="M0.231352 14.7541L3.16546 12.5064C4.72377 14.5407 6.37855 15.478 8.22244 15.4779C10.0561 15.4778 11.6653 14.551 13.1535 12.5327L16.1283 14.7262C13.9826 17.6362 11.3129 19.1738 8.22268 19.174C5.14271 19.1742 2.44806 17.6478 0.231352 14.7541Z" fill="white"/>
<path fill-rule="evenodd" clip-rule="evenodd" d="M8.21241 4.98559L2.99022 9.48608L0.577347 6.68627L8.22246 0.0976791L15.809 6.69038L13.3847 9.48026L8.21241 4.98559Z" fill="white"/>
<path d="M36.1571 3.89498L33.2002 3.89517L33.201 16.2154L36.1579 16.2152L36.1571 3.89498Z" fill="white"/>
<path fill-rule="evenodd" clip-rule="evenodd" d="M27.2254 16.2702C25.4823 16.2703 24.0298 15.7055 22.8515 14.5758C21.6732 13.43 21.0921 11.9613 21.092 10.1698C21.0918 8.36221 21.6889 6.87732 22.867 5.71522C24.0613 4.53693 25.5138 3.95582 27.2407 3.9557C29.3711 3.95556 31.2596 4.87538 32.357 6.31174L30.4366 8.32932C29.5165 7.34486 28.5159 6.84461 27.4346 6.84468C26.5146 6.84474 25.7561 7.15143 25.1267 7.78092C24.5134 8.41041 24.2069 9.20127 24.2069 10.1535C24.207 11.0734 24.5137 11.8481 25.127 12.4775C25.7565 13.0908 26.5151 13.3974 27.4189 13.3973C28.5971 13.3972 29.6299 12.8807 30.4852 11.8639L32.4868 13.7843C31.9382 14.5106 31.1956 15.1078 30.2756 15.576C29.356 16.0441 28.339 16.2701 27.2254 16.2702Z" fill="white"/>
<path fill-rule="evenodd" clip-rule="evenodd" d="M40.5922 4.88028C40.5923 5.76486 39.8755 6.48198 38.9909 6.48204C38.1062 6.4821 37.3891 5.76507 37.389 4.88049C37.389 3.99594 38.106 3.27882 38.9907 3.27876C39.8753 3.2787 40.5922 3.99573 40.5922 4.88028ZM40.4692 7.22113L37.5124 7.22133L37.513 16.2151L40.4698 16.2149L40.4692 7.22113Z" fill="white"/>
<path fill-rule="evenodd" clip-rule="evenodd" d="M46.1854 16.285C44.7814 16.2851 43.6515 15.8494 42.7639 14.9779C41.8922 14.1065 41.4562 12.9929 41.4561 11.621C41.456 10.2491 41.8919 9.13547 42.7794 8.2639C43.6671 7.3923 44.8129 6.95646 46.2332 6.95636C48.0894 6.95624 49.7194 7.85992 50.478 9.55454L48.2024 10.749C47.7505 9.99049 47.1212 9.60317 46.298 9.60323C45.7009 9.60327 45.2166 9.79698 44.8294 10.1843C44.4581 10.5717 44.2645 11.0559 44.2645 11.6208C44.2646 12.799 45.12 13.6705 46.2661 13.6704C47.089 13.6703 47.8475 13.2184 48.1704 12.5243L50.4461 13.8799C49.6714 15.3648 48.0738 16.2849 46.1854 16.285Z" fill="white"/>
<path fill-rule="evenodd" clip-rule="evenodd" d="M54.1448 3.89377L51.188 3.89397L51.1888 16.2142L54.1456 16.214L54.1454 13.0776L54.4918 12.7545L57.1949 16.2138L60.6346 16.2136L56.4815 10.8987L60.4262 7.21978L56.8131 7.22003L54.1452 9.70844L54.1448 3.89377Z" fill="white"/>
<path fill-rule="evenodd" clip-rule="evenodd" d="M61.1678 11.558L61.1672 3.8933L64.2475 3.89309L64.248 11.3861C64.2481 12.7257 65.0287 13.3712 66.1577 13.3712C67.2702 13.3711 68.0672 12.6932 68.0672 11.3859L68.0667 3.89283L71.1467 3.89263L71.1472 11.5573C71.1474 15.0757 68.6774 16.3993 66.1579 16.3995C63.6547 16.3997 61.168 15.0764 61.1678 11.558Z" fill="white"/>
<path fill-rule="evenodd" clip-rule="evenodd" d="M77.8006 16.4588C80.1821 16.4587 82.1127 14.3625 82.1125 11.7768C82.1123 9.1912 80.1815 7.09527 77.8 7.09543C76.8293 7.0955 75.9337 7.44382 75.2128 8.03155L75.2128 7.21882L72.3792 7.21901L72.38 19.9089L75.2136 19.9087L75.2133 15.5231C75.9342 16.1107 76.8299 16.4589 77.8006 16.4588ZM75.2131 11.7821L75.2131 11.7725C75.2156 10.618 76.1245 9.68279 77.2457 9.68272C78.3686 9.68264 79.2788 10.6203 79.2789 11.777C79.279 12.9337 78.3689 13.8715 77.246 13.8716C76.1248 13.8717 75.2158 12.9366 75.2131 11.7821Z" fill="white"/>
</g>
<defs>
<clipPath id="clip0_205_13">
<rect width="82.3188" height="20" fill="white" transform="translate(0 0.00552572)"/>
</clipPath>
</defs>
</svg>
