<svg width="61" height="25" viewBox="0 0 61 25" fill="none" xmlns="http://www.w3.org/2000/svg">
<g opacity="0.3">
<path fill-rule="evenodd" clip-rule="evenodd" d="M60.081 12.9172C60.0808 8.64489 58.0111 5.27386 54.0558 5.27413C50.0839 5.27439 47.6809 8.64572 47.6812 12.8847C47.6815 17.9081 50.5188 20.4446 54.5909 20.4443C56.5769 20.4442 58.0788 19.9935 59.2136 19.3592L59.2134 16.0214C58.0786 16.5889 56.7769 16.9395 55.1247 16.9396C53.5059 16.9397 52.0706 16.3724 51.8869 14.4031L60.0478 14.4026C60.0477 14.1856 60.0811 13.3178 60.081 12.9172ZM51.8366 11.3324C51.8365 9.44651 52.988 8.66205 54.0394 8.66198C55.0574 8.66191 56.1422 9.44622 56.1423 11.3321L51.8366 11.3324Z" fill="white"/>
<path fill-rule="evenodd" clip-rule="evenodd" d="M41.2384 5.27495C39.6029 5.27505 38.5515 6.04282 37.9675 6.5769L37.7504 5.5422L34.0789 5.54245L34.0802 25.0017L38.2524 24.1169L38.2687 19.394C38.8695 19.8278 39.7541 20.4453 41.2227 20.4452C44.21 20.445 46.9302 18.0416 46.9298 12.7512C46.9128 7.91141 44.159 5.27475 41.2384 5.27495ZM40.2378 16.7737C39.2532 16.7737 38.6691 16.4233 38.2685 15.9894L38.2514 9.79784C38.6853 9.31383 39.286 8.98002 40.2373 8.97995C41.756 8.97985 42.8075 10.682 42.8077 12.8683C42.8078 15.1046 41.7732 16.7736 40.2378 16.7737Z" fill="white"/>
<path fill-rule="evenodd" clip-rule="evenodd" d="M28.3379 4.29119L32.5268 3.38971L32.5266 0.00185965L28.3377 0.886653L28.3379 4.29119Z" fill="white"/>
<path d="M32.5271 5.55928L28.3381 5.55956L28.3391 20.1624L32.528 20.1621L32.5271 5.55928Z" fill="white"/>
<path fill-rule="evenodd" clip-rule="evenodd" d="M23.849 6.79479L23.5819 5.55983L19.9771 5.56007L19.978 20.1629L24.1503 20.1626L24.1496 10.2661C25.1342 8.98095 26.8031 9.21448 27.3204 9.39803L27.3202 5.55958C26.7861 5.35934 24.8335 4.99232 23.849 6.79479Z" fill="white"/>
<path fill-rule="evenodd" clip-rule="evenodd" d="M15.5043 1.93889L11.4323 2.80699L11.4165 16.1748C11.4166 18.6448 13.2692 20.4637 15.7392 20.4636C17.1077 20.4635 18.109 20.2131 18.6597 19.9126L18.6595 16.5248C18.1255 16.7418 15.4887 17.5097 15.4885 15.0397L15.4881 9.11513L18.659 9.11492L18.6588 5.56018L15.4879 5.56039L15.5043 1.93889Z" fill="white"/>
<path fill-rule="evenodd" clip-rule="evenodd" d="M4.22309 9.80013C4.22304 9.14926 4.75707 8.89889 5.64159 8.89883C6.90994 8.89875 8.5121 9.28248 9.78051 9.96664L9.78024 6.04475C8.39503 5.49411 7.02652 5.27724 5.64134 5.27734C2.25349 5.27756 0.000607029 7.04674 0.000805314 10.0007C0.00111451 14.6068 6.34285 13.8721 6.34299 15.8581C6.34304 16.6258 5.6755 16.8761 4.74092 16.8762C3.35574 16.8763 1.58668 16.309 0.184755 15.5414L0.185022 19.5133C1.73714 20.1808 3.30591 20.4644 4.74116 20.4643C8.21246 20.4641 10.5989 18.745 10.5987 15.7576C10.5816 10.7843 4.22321 11.6693 4.22309 9.80013Z" fill="white"/>
</g>
</svg>
